<svg xmlns="http://www.w3.org/2000/svg" viewBox="0 0 79.216 53.073"><path
    d="M19.819 13.063h14.989l-2.323 8.886a5.629 5.629 0 01-1.99 2.988 5.38 5.38 0 01-3.384 1.125h-6.96a6.749 6.749 0 00-4.211 1.394 7.257 7.257 0 00-2.553 3.78 7.062 7.062 0 00-.1 3.384 7.218 7.218 0 001.298 2.817 6.7 6.7 0 002.383 1.956 6.988 6.988 0 003.184.729h4.245a2.386 2.386 0 011.956.978 2.3 2.3 0 01.43 2.157l-2.651 9.815h-4.641a18.73 18.73 0 01-8.8-2.093 19.777 19.777 0 01-6.651-5.526A19.562 19.562 0 01.656 28.542l.264-.978a19.483 19.483 0 012.69-5.869 19.21 19.21 0 014.308-4.607 19.889 19.889 0 015.541-2.934 19.278 19.278 0 016.362-1.091zm7.56 39.994L40.446 4.109a5.6 5.6 0 011.99-2.983A5.35 5.35 0 0145.815.001h13.864a18.745 18.745 0 018.8 2.088 19.728 19.728 0 0110.3 13.395 18.486 18.486 0 01-.264 9.052l-.264.978a19.928 19.928 0 01-2.655 5.869 19.376 19.376 0 01-16.182 8.69H47.43l2.387-8.954a5.609 5.609 0 011.99-2.934 5.38 5.38 0 013.379-1.125h3.849a6.979 6.979 0 006.763-5.243 6.543 6.543 0 00.1-3.247 7.336 7.336 0 00-1.3-2.822 7.037 7.037 0 00-2.387-1.986 6.768 6.768 0 00-3.184-.763h-7.44l-9.683 36.009a5.609 5.609 0 01-1.991 2.934 5.277 5.277 0 01-3.316 1.13z"
    fill="#ff6c2c"
  /></svg>
