<svg xmlns="http://www.w3.org/2000/svg" viewBox="0 0 63.486 62.507"><defs />
  <path
    fill="#b5010f"
    d="M62.759 1.066c3.365 3.364-5.964 18.15-7.541 19.728s-5.583.126-8.947-3.239-4.815-7.371-3.238-8.948S59.395-2.299 62.759 1.066m-47.191 3.56C10.43 1.71 3.119-1.532.793.794c-2.356 2.355 1.005 9.83 3.951 14.979A31.593 31.593 0 0115.568 4.626"
  />
  <path
    fill="#b5010f"
    d="M57.627 19.635c.473 1.6.388 2.93-.379 3.7-1.792 1.793-6.633-.116-11-4.269-.3-.273-.607-.556-.9-.854a19.51 19.51 0 01-3.591-4.806c-1.528-2.742-1.911-5.164-.756-6.319a3.142 3.142 0 012.866-.579c.8-.507 1.747-1.071 2.784-1.65a30.561 30.561 0 1012.52 12.114 59.94 59.94 0 01-1.544 2.663"
  /></svg>
