<svg xmlns="http://www.w3.org/2000/svg" xmlns:xlink="http://www.w3.org/1999/xlink" width="705" height="752.021" viewBox="0 0 705 752.021">
  <defs>
    <linearGradient id="linear-gradient" x1="0.164" y1="-0.053" x2="0.908" y2="0.85" gradientUnits="objectBoundingBox">
      <stop offset="0" stop-color="#def5ff"/>
      <stop offset="0.411" stop-color="#d5f3ff"/>
      <stop offset="1" stop-color="#c1f0ff"/>
    </linearGradient>
  </defs>
  <g id="missed_call_service-illustrations" data-name="missed call service-illustrations" transform="translate(-257 -1151.979)">
    <path id="Path_7109" data-name="Path 7109" d="M893.715,881.338h-703V198.485s141,29.443,269-31.708,150-11.324,150-11.324,8.311,17.255,0,24.913c-37.026,34.116-147.04,112.2-54.072,125.8,113.1,16.552,325.929,79.31,226.757,280-20.313,41.107-24.4,77.751-18.068,110.04q1.427,7.255,3.555,14.3a160.3,160.3,0,0,0,11.99,28.931q4.122,7.746,8.92,14.987c.117.179.234.359.351.531C845.931,840.324,893.715,881.338,893.715,881.338Z" transform="translate(68.285 1015.662)" fill="#f1f9ff"/>
    <rect id="Rectangle_1768" data-name="Rectangle 1768" width="690" height="8" rx="4" transform="translate(257 1896)" fill="#a0b7f6"/>
    <ellipse id="Ellipse_1894" data-name="Ellipse 1894" cx="9" cy="8.5" rx="9" ry="8.5" transform="translate(379 1376)" fill="#7698f2"/>
    <circle id="Ellipse_1895" data-name="Ellipse 1895" cx="8.5" cy="8.5" r="8.5" transform="translate(833 1376)" fill="#7698f2"/>
    <g id="Group_5567" data-name="Group 5567" transform="translate(258.148 1049.033)">
      <g id="Group_5558" data-name="Group 5558" transform="translate(121.851 234.256)">
        <path id="Path_7118" data-name="Path 7118" d="M41.538,204.69A9.688,9.688,0,1,1,51.225,195,9.7,9.7,0,0,1,41.538,204.69Zm0-16.337A6.648,6.648,0,1,0,48.188,195,6.656,6.656,0,0,0,41.538,188.354Z" transform="translate(-31.851 -185.314)" fill="#f8461a"/>
      </g>
      <g id="Group_5559" data-name="Group 5559" transform="translate(36.694 161.065)">
        <path id="Path_7119" data-name="Path 7119" d="M43.867,173.818a9.688,9.688,0,1,1,9.687-9.689A9.7,9.7,0,0,1,43.867,173.818Zm0-16.337a6.648,6.648,0,1,0,6.649,6.647A6.654,6.654,0,0,0,43.867,157.482Z" transform="translate(-34.18 -154.442)" fill="#564cde"/>
      </g>
      <g id="Group_5571" data-name="Group 5571" transform="translate(281.928 112.416)">
        <g id="Group_5570" data-name="Group 5570">
          <g id="Group_5564" data-name="Group 5564" transform="translate(9.409)">
            <g id="Group_5561" data-name="Group 5561">
              <g id="Group_5560" data-name="Group 5560">
                <path id="Path_7120" data-name="Path 7120" d="M55.245,177.816a1.519,1.519,0,0,1-1.518-1.52v-6.7a1.519,1.519,0,0,1,3.038,0v6.7A1.519,1.519,0,0,1,55.245,177.816Z" transform="translate(-53.727 -168.077)" fill="#564cde"/>
              </g>
            </g>
            <g id="Group_5563" data-name="Group 5563" transform="translate(0 11.727)">
              <g id="Group_5562" data-name="Group 5562">
                <path id="Path_7121" data-name="Path 7121" d="M55.245,183.458a1.519,1.519,0,0,1-1.518-1.52v-6.7a1.519,1.519,0,1,1,3.038,0v6.7A1.519,1.519,0,0,1,55.245,183.458Z" transform="translate(-53.727 -173.717)" fill="#564cde"/>
              </g>
            </g>
          </g>
          <g id="Group_5569" data-name="Group 5569" transform="translate(0 9.213)">
            <g id="Group_5566" data-name="Group 5566" transform="translate(12.794)">
              <g id="Group_5565" data-name="Group 5565">
                <path id="Path_7122" data-name="Path 7122" d="M62.9,175.548H56.875a1.52,1.52,0,0,1,0-3.04H62.9a1.52,1.52,0,0,1,0,3.04Z" transform="translate(-55.355 -172.508)" fill="#564cde"/>
              </g>
            </g>
            <g id="Group_5568" data-name="Group 5568">
              <g id="Group_5567-2" data-name="Group 5567">
                <path id="Path_7123" data-name="Path 7123" d="M56.743,175.548H50.722a1.52,1.52,0,0,1,0-3.04h6.021a1.52,1.52,0,0,1,0,3.04Z" transform="translate(-49.202 -172.508)" fill="#564cde"/>
              </g>
            </g>
          </g>
        </g>
      </g>
      <g id="Group_5583" data-name="Group 5583" transform="translate(327.328 209.966)">
        <g id="Group_5582" data-name="Group 5582">
          <g id="Group_5576" data-name="Group 5576" transform="translate(9.407)">
            <g id="Group_5573" data-name="Group 5573">
              <g id="Group_5572" data-name="Group 5572">
                <path id="Path_7124" data-name="Path 7124" d="M59.767,149.705a1.52,1.52,0,0,1-1.52-1.518v-6.7a1.52,1.52,0,0,1,3.04,0v6.7A1.519,1.519,0,0,1,59.767,149.705Z" transform="translate(-58.247 -139.966)" fill="#f8461a"/>
              </g>
            </g>
            <g id="Group_5575" data-name="Group 5575" transform="translate(0 11.727)">
              <g id="Group_5574" data-name="Group 5574">
                <path id="Path_7125" data-name="Path 7125" d="M59.767,155.347a1.521,1.521,0,0,1-1.52-1.52v-6.7a1.52,1.52,0,1,1,3.04,0v6.7A1.519,1.519,0,0,1,59.767,155.347Z" transform="translate(-58.247 -145.606)" fill="#f8461a"/>
              </g>
            </g>
          </g>
          <g id="Group_5581" data-name="Group 5581" transform="translate(0 9.213)">
            <g id="Group_5578" data-name="Group 5578" transform="translate(12.794)">
              <g id="Group_5577" data-name="Group 5577">
                <path id="Path_7126" data-name="Path 7126" d="M67.415,147.437H61.4a1.52,1.52,0,1,1,0-3.04h6.019a1.52,1.52,0,1,1,0,3.04Z" transform="translate(-59.876 -144.397)" fill="#f8461a"/>
              </g>
            </g>
            <g id="Group_5580" data-name="Group 5580">
              <g id="Group_5579" data-name="Group 5579">
                <path id="Path_7127" data-name="Path 7127" d="M61.262,147.437H55.243a1.52,1.52,0,1,1,0-3.04h6.019a1.52,1.52,0,1,1,0,3.04Z" transform="translate(-53.723 -144.397)" fill="#f8461a"/>
              </g>
            </g>
          </g>
        </g>
      </g>
    </g>
    <g id="Group_5712" data-name="Group 5712" transform="translate(257.2 1349.068)">
      <g id="Group_5684" data-name="Group 5684" transform="translate(45.127 103.523)">
        <path id="Path_7243" data-name="Path 7243" d="M563.935,338.932c.8-18.022-.186-36.24-1.872-54.191-3.949-42.018-13.243-86.9-44.29-115.487-34.718-31.969-84.873-33.827-129.446-31.981-52.209,2.161-100.68-3.5-150.511-20.156-45.461-15.193-90.479-39.568-137.507-12.925C79.19,116.158,63.694,136.7,55.04,159.379s-10.866,47.415-9.571,71.655c.964,18.062,4.11,36.743,14.532,51.527,26.542,37.646,82.43,39.421,116.374,67.994,23.669,19.921,28.127,53.939,41.041,82.051,27.572,60.018,98.648,93.1,164.338,86.22,73.273-7.67,149.3-53.307,172.983-125.893C560.438,375.463,563.117,357.3,563.935,338.932Z" transform="translate(-45.127 -92.314)" opacity="0.5" fill="url(#linear-gradient)"/>
        <path id="Path_7244" data-name="Path 7244" d="M105.007,358.628q.542,1.33,1.039,2.692c3.822,10.462,5.444,23.542,16.269,29.406,9.675,5.241,22.673.274,28.655-8.963s5.967-21.335,2.693-31.841c-6.072-19.495-22.161-33.923-40.6-41.7-17.839-7.523-43.84-13.289-59.834,1.192-1.535,1.391-3.048,3.271-2.663,5.307.326,1.727,1.91,2.9,3.448,3.756,10.249,5.695,21.694,6.894,31.356,14.077C94.492,339.336,100.791,348.285,105.007,358.628Z" transform="translate(-43.691 -36.762)" fill="#def5ff" opacity="0.5"/>
      </g>
      <g id="Group_5710" data-name="Group 5710" transform="translate(46.811 155.612)">
        <g id="Group_5685" data-name="Group 5685" transform="translate(30.394 32.464)">
          <path id="Path_7245" data-name="Path 7245" d="M328.233,364.247,202.273,159.056,70.448,212.875l125.96,205.191,131.825-53.819" transform="translate(-70.448 -159.056)" fill="#fff"/>
        </g>
        <g id="Group_5686" data-name="Group 5686" transform="translate(66.105 81.109)">
          <path id="Path_7246" data-name="Path 7246" d="M118.382,197.587a2.217,2.217,0,0,1,2.611.93,1.5,1.5,0,0,1-.651,2.261l-18.827,7.686a2.216,2.216,0,0,1-2.607-.931,1.5,1.5,0,0,1,.649-2.26Z" transform="translate(-98.637 -197.453)" fill="#006cfc"/>
        </g>
        <g id="Group_5687" data-name="Group 5687" transform="translate(67.195 51.704)">
          <path id="Path_7247" data-name="Path 7247" d="M100.385,174.371a2.145,2.145,0,0,1,2.524.9,1.445,1.445,0,0,1-.627,2.185,2.141,2.141,0,0,1-2.52-.9A1.445,1.445,0,0,1,100.385,174.371Z" transform="translate(-99.497 -174.243)" fill="#1a6ef5"/>
        </g>
        <g id="Group_5688" data-name="Group 5688" transform="translate(69.077 91.762)">
          <path id="Path_7248" data-name="Path 7248" d="M106.49,206a2.212,2.212,0,0,1,2.607.931,1.494,1.494,0,0,1-.649,2.261l-4.587,1.872a2.217,2.217,0,0,1-2.607-.931,1.5,1.5,0,0,1,.647-2.26Z" transform="translate(-100.983 -205.863)" fill="#cedae7"/>
        </g>
        <path id="Union_14" data-name="Union 14" d="M6164.98,20391.117,6016.66,20149.5c-3.3-5.383-3.446-11.27-.968-15.826l7.281-13.359c-2.483,4.563-2.335,10.451.968,15.832l148.32,241.613c5.314,8.658,16.825,12.77,25.657,9.16l118.316-48.3a14.43,14.43,0,0,0,7.348-6.42l-7.281,13.357a14.389,14.389,0,0,1-7.191,6.357l-.156.064-118.311,48.3a18.221,18.221,0,0,1-6.876,1.3A22.532,22.532,0,0,1,6164.98,20391.117Z" transform="translate(-6013.989 -20064.295)" fill="#4270ed"/>
        <g id="Group_5689" data-name="Group 5689" transform="translate(50.774 92.119)">
          <path id="Path_7250" data-name="Path 7250" d="M94.739,206.239a1.587,1.587,0,0,1,1.867.668l4.537,7.391a1.073,1.073,0,0,1-.461,1.623L93.138,219a1.588,1.588,0,0,1-1.87-.671l-4.537-7.391a1.068,1.068,0,0,1,.464-1.619Z" transform="translate(-86.535 -206.144)" fill="#006cfc"/>
        </g>
        <path id="Path_7251" data-name="Path 7251" d="M282.37,357.258a11.016,11.016,0,0,0,.917-2.233c.256-.467.6-1.092.851-1.561.271-.5.632-1.159.9-1.656l.937-1.719.954-1.75c.285-.524.666-1.225.953-1.75l.935-1.715.9-1.651.848-1.554a11.047,11.047,0,0,1-.917,2.233Z" transform="translate(16.5 -77.859)" fill="none"/>
        <g id="Group_5690" data-name="Group 5690" transform="translate(158.033 211.56)">
          <path id="Path_7252" data-name="Path 7252" d="M247.618,301.252c5.575-2.275,12.811.309,16.163,5.769s1.556,11.738-4.018,14.013L189.051,349.9c-5.574,2.277-12.809-.308-16.164-5.773s-1.554-11.732,4.021-14.009Zm-6.866,17.7a1.891,1.891,0,0,0,.818-2.866,2.8,2.8,0,0,0-3.3-1.179L195.918,332.2a1.89,1.89,0,0,0-.82,2.862,2.8,2.8,0,0,0,3.3,1.183l42.351-17.29" transform="translate(-171.2 -300.426)" fill="#134de9"/>
        </g>
        <g id="Group_5691" data-name="Group 5691" transform="translate(181.586 225.876)">
          <path id="Path_7253" data-name="Path 7253" d="M233.309,311.895a2.8,2.8,0,0,1,3.3,1.179,1.891,1.891,0,0,1-.818,2.866l-42.351,17.29a2.8,2.8,0,0,1-3.3-1.183,1.89,1.89,0,0,1,.82-2.862Z" transform="translate(-189.792 -311.725)" fill="#fcf8f7"/>
        </g>
        <g id="Group_5692" data-name="Group 5692" transform="translate(221.989 269.097)">
          <path id="Path_7254" data-name="Path 7254" d="M226.973,346.266A13.744,13.744,0,0,1,241.1,351.31a1.029,1.029,0,0,0-.426,1.539c2.963,5.156.769,10.476-3.759,12.324a10.5,10.5,0,0,1-7.567-.044c-8.926-3.186-10.3-13.991-2.825-17.335A1.03,1.03,0,0,0,226.973,346.266Z" transform="translate(-221.684 -345.842)" fill="#1a6ef5"/>
        </g>
        <g id="Group_5693" data-name="Group 5693" transform="translate(7.279)">
          <path id="Path_7255" data-name="Path 7255" d="M179.565,134.737c8.835-3.607,20.347.509,25.662,9.166L353.544,385.516c5.317,8.662,2.455,18.639-6.379,22.246l-118.311,48.3c-8.835,3.607-20.345-.5-25.662-9.165L54.875,205.284c-5.314-8.656-2.456-18.638,6.379-22.245Zm170.74,252.1L201.987,145.224c-4.241-6.909-13.425-10.189-20.473-7.311L63.2,186.214c-7.049,2.878-9.332,10.838-5.089,17.749L206.432,445.575c4.241,6.909,13.424,10.189,20.473,7.312l118.311-48.3c7.049-2.877,9.332-10.837,5.089-17.747" transform="translate(-52.202 -133.43)" fill="#a0b7f6"/>
        </g>
        <g id="Group_5694" data-name="Group 5694" transform="translate(124.372 51.657)">
          <path id="Path_7256" data-name="Path 7256" d="M178.251,174.339a2.212,2.212,0,0,1,2.607.931,1.493,1.493,0,0,1-.647,2.26l-32.7,13.35a2.212,2.212,0,0,1-2.607-.931,1.492,1.492,0,0,1,.647-2.26Z" transform="translate(-144.629 -174.206)" fill="#cedae7"/>
        </g>
        <g id="Group_5695" data-name="Group 5695" transform="translate(74.723 36.3)">
          <path id="Path_7257" data-name="Path 7257" d="M136.53,162.212a2.146,2.146,0,0,1,2.524.9,1.445,1.445,0,0,1-.627,2.185l-30.2,12.33a2.145,2.145,0,0,1-2.521-.9,1.448,1.448,0,0,1,.625-2.189Z" transform="translate(-105.439 -162.084)" fill="#1a6ef5"/>
        </g>
        <g id="Group_5696" data-name="Group 5696" transform="translate(73.645 35.319)">
          <path id="Path_7258" data-name="Path 7258" d="M136.2,161.513a3.405,3.405,0,0,1,4,1.433,2.292,2.292,0,0,1-.994,3.469l-30.2,12.332a3.4,3.4,0,0,1-4-1.43,2.3,2.3,0,0,1,.992-3.472Zm2.453,4a1.445,1.445,0,0,0,.627-2.185,2.146,2.146,0,0,0-2.524-.9l-30.2,12.33a1.449,1.449,0,0,0-.625,2.19,2.146,2.146,0,0,0,2.521.9l30.2-12.33" transform="translate(-104.588 -161.309)" fill="#cbd8ec"/>
        </g>
        <g id="Group_5697" data-name="Group 5697" transform="translate(66.118 50.723)">
          <path id="Path_7259" data-name="Path 7259" d="M100.056,173.672a3.407,3.407,0,0,1,4,1.433,2.294,2.294,0,0,1-.994,3.469,3.4,3.4,0,0,1-4-1.429A2.3,2.3,0,0,1,100.056,173.672Zm2.453,4a1.445,1.445,0,0,0,.627-2.185,2.145,2.145,0,0,0-2.524-.9,1.445,1.445,0,0,0-.623,2.189,2.142,2.142,0,0,0,2.52.9" transform="translate(-98.647 -173.468)" fill="#cbd8ec"/>
        </g>
        <g id="Group_5698" data-name="Group 5698" transform="translate(11.057 3.44)">
          <path id="Path_7260" data-name="Path 7260" d="M180.719,137.189c7.048-2.877,16.231.4,20.473,7.311L349.51,386.114c4.241,6.909,1.959,14.87-5.09,17.747l-118.311,48.3c-7.049,2.877-16.231-.4-20.473-7.312L57.317,203.237c-4.241-6.909-1.959-14.869,5.09-17.746ZM332.306,370.361,206.346,165.17,74.521,218.989,200.482,424.18l131.825-53.819m-49.639,53.056c5.719-2.335,8.484-9.057,4.748-15.552a1.418,1.418,0,0,0-1.79-.637c-.033.013-.063.027-.094.042a13.743,13.743,0,0,0-14.126-5.045,1.449,1.449,0,0,0-1.8-.759c-9.446,4.225-7.746,17.869,3.524,21.894a13.243,13.243,0,0,0,9.538.057M119.182,180.559a2.3,2.3,0,0,0-.993,3.472,3.4,3.4,0,0,0,4,1.429l30.2-12.33a2.292,2.292,0,0,0,.994-3.469,3.406,3.406,0,0,0-4-1.433l-30.2,12.33m-7.528,3.073a2.3,2.3,0,0,0-.992,3.472,3.4,3.4,0,0,0,4,1.429,2.294,2.294,0,0,0,1-3.469,3.407,3.407,0,0,0-4-1.433" transform="translate(-55.185 -136.145)" fill="#cfdbfb"/>
        </g>
        <g id="Group_5705" data-name="Group 5705" transform="translate(89.824 95.892)">
          <g id="Group_5699" data-name="Group 5699" transform="translate(26.158 49.887)">
            <path id="Path_7261" data-name="Path 7261" d="M144.268,248.588a1.541,1.541,0,0,1,1.316.152c1.1.532,13.733,8.062,14.52,8.859a2.141,2.141,0,0,1,.378,2.311c-.2.55-3.333,5.725-3.7,6.3s-.574,1.015.261,1.833a49.706,49.706,0,0,0,10.526,6.206,47.412,47.412,0,0,0,11.737,2.742,2.038,2.038,0,0,0,.722-.12c.46-.189.532-.58.585-1.082.077-.689.855-6.816,1.045-7.363a2.151,2.151,0,0,1,1.11-1.361,1.716,1.716,0,0,1,.58-.12c1.077-.052,15.206,3.179,16.359,3.546a1.723,1.723,0,0,1,1.309,1.869c.06.793.067,7.379-.466,9.087a5.236,5.236,0,0,1-3.078,3.08c-.13.053-.26.1-.385.142-1.325.428-16.564,1.846-31.659-4.221s-25.754-17.891-26.489-19.147a5.986,5.986,0,0,1-.656-4.877c.632-1.667,4.646-6.638,5.176-7.191A2.465,2.465,0,0,1,144.268,248.588Z" transform="translate(-138.007 -248.501)" fill="#134de9"/>
          </g>
          <g id="Group_5704" data-name="Group 5704">
            <g id="Group_5700" data-name="Group 5700" transform="translate(43.309 36.631)">
              <path id="Path_7262" data-name="Path 7262" d="M156.387,240.155c.665-.271,1.4-.571,2.1-.778a32.076,32.076,0,0,1,20.432.725,35.939,35.939,0,0,1,15.423,10.6,38.338,38.338,0,0,1,2.9,4.043c.441.718.879,1.433,1.254,2.179a1.473,1.473,0,0,1-.728,2.1c-.039.015-.08.03-.122.044a2.24,2.24,0,0,1-2.508-1.1,6.321,6.321,0,0,1-.639-1.449l-.4-.652a30.134,30.134,0,0,0-6.569-7.445,32.882,32.882,0,0,0-9.526-5.34,29.394,29.394,0,0,0-12.754-1.648,25.47,25.47,0,0,0-7.022,1.723,19.89,19.89,0,0,0-1.891.854c-.2.082-.36.229-.56.31-.426.256-.785.484-1.211.74a1.262,1.262,0,0,1-.293.167,2.1,2.1,0,0,1-2.268-.674,1.454,1.454,0,0,1,.184-2.279c.652-.431,1.344-.794,2.037-1.159S155.653,240.454,156.387,240.155Z" transform="translate(-151.545 -238.037)" fill="#134de9"/>
            </g>
            <g id="Group_5701" data-name="Group 5701" transform="translate(36.272 26.983)">
              <path id="Path_7263" data-name="Path 7263" d="M152.31,233.269c9.588-3.915,20.573-3.663,30.709-.042a48.255,48.255,0,0,1,24.829,19.83c.561.913,1.093,1.917,1.628,2.924a1.474,1.474,0,0,1-.727,2.1,2.256,2.256,0,0,1-2.63-1.055c-.281-.457-.455-.877-.693-1.264-.28-.457-.6-.979-.882-1.437a43.859,43.859,0,0,0-22.574-18.055c-9.135-3.213-19.121-3.465-27.776.07-.932.38-1.758.8-2.65,1.245a9.652,9.652,0,0,0-1.319.7c-.427.255-.785.484-1.212.74a1.294,1.294,0,0,1-.291.166,2.1,2.1,0,0,1-2.269-.673,1.456,1.456,0,0,1,.184-2.28,22.434,22.434,0,0,1,2.757-1.615C150.352,234.149,151.311,233.677,152.31,233.269Z" transform="translate(-145.99 -230.422)" fill="#134de9"/>
            </g>
            <g id="Group_5702" data-name="Group 5702">
              <path id="Path_7264" data-name="Path 7264" d="M148.248,213.6c30.163-12.314,69.33,1.672,87.485,31.246s8.415,63.527-21.747,75.841-69.337-1.675-87.488-31.245S118.082,225.91,148.248,213.6Zm58.28,69.272a1.725,1.725,0,0,0-1.309-1.87c-1.153-.366-15.282-3.6-16.359-3.545a1.716,1.716,0,0,0-.58.12,2.151,2.151,0,0,0-1.11,1.361c-.189.547-.968,6.674-1.045,7.363-.053.5-.125.893-.585,1.082a2.038,2.038,0,0,1-.722.12,47.412,47.412,0,0,1-11.737-2.742,49.64,49.64,0,0,1-10.526-6.208c-.835-.817-.625-1.255-.261-1.832s3.5-5.749,3.7-6.3a2.141,2.141,0,0,0-.378-2.311c-.787-.8-13.422-8.327-14.52-8.859a1.541,1.541,0,0,0-1.316-.152,2.444,2.444,0,0,0-.808.641c-.53.554-4.544,5.525-5.176,7.192a5.986,5.986,0,0,0,.656,4.877c.735,1.257,11.387,13.078,26.489,19.147s30.334,4.649,31.659,4.221c.125-.042.255-.089.385-.142a5.236,5.236,0,0,0,3.078-3.08c.533-1.708.526-8.294.466-9.087m10.59-21.2c-.535-1.007-1.067-2.011-1.628-2.924a48.255,48.255,0,0,0-24.829-19.83c-10.136-3.621-21.121-3.873-30.709.042-1,.408-1.959.88-2.918,1.354a22.123,22.123,0,0,0-2.757,1.615,1.456,1.456,0,0,0-.184,2.28,2.1,2.1,0,0,0,2.269.673,1.294,1.294,0,0,0,.291-.166c.427-.256.785-.485,1.212-.74a9.652,9.652,0,0,1,1.319-.7c.892-.446,1.718-.865,2.65-1.247,8.655-3.533,18.639-3.281,27.776-.068a43.853,43.853,0,0,1,22.574,18.055c.281.457.6.979.882,1.437.238.388.412.807.693,1.264a2.238,2.238,0,0,0,2.507,1.1,1.5,1.5,0,0,0,.85-2.144m-9.5,2.977c-.375-.745-.813-1.459-1.254-2.178a38.338,38.338,0,0,0-2.9-4.043,35.939,35.939,0,0,0-15.423-10.6,32.076,32.076,0,0,0-20.432-.725c-.706.206-1.439.507-2.1.778-.734.3-1.466.6-2.159.963s-1.385.728-2.037,1.158a1.456,1.456,0,0,0-.184,2.28,2.1,2.1,0,0,0,2.268.673,1.214,1.214,0,0,0,.293-.166c.426-.256.785-.484,1.211-.74.2-.081.36-.228.56-.31a19.89,19.89,0,0,1,1.891-.854,25.47,25.47,0,0,1,7.022-1.723,29.394,29.394,0,0,1,12.754,1.648,32.882,32.882,0,0,1,9.526,5.34,30.134,30.134,0,0,1,6.569,7.445l.4.652a6.321,6.321,0,0,0,.639,1.449,2.24,2.24,0,0,0,2.508,1.1c.042-.014.082-.029.122-.044a1.474,1.474,0,0,0,.728-2.1m-9.846,2.146-.441-.717a23.332,23.332,0,0,0-4.3-5.105,24.151,24.151,0,0,0-7.55-4.43,22.252,22.252,0,0,0-10.063-1.2,19.426,19.426,0,0,0-4.516,1.191,11.353,11.353,0,0,0-1.425.664q-.64.384-1.28.766a1.456,1.456,0,0,0-.182,2.28,2.1,2.1,0,0,0,2.268.673,1.281,1.281,0,0,0,.293-.166,6.3,6.3,0,0,1,1.051-.593l.2-.082c.333-.136.626-.337.959-.473a16.425,16.425,0,0,1,11.82-.008,18.808,18.808,0,0,1,9.542,7.538l.08.13.361.588a2.066,2.066,0,0,0,.2.735,2.23,2.23,0,0,0,2.5,1.1c.042-.014.082-.028.123-.044a1.473,1.473,0,0,0,.73-2.1,3.9,3.9,0,0,1-.375-.746" transform="translate(-117.359 -209.123)" fill="#cfdbfb"/>
            </g>
            <g id="Group_5703" data-name="Group 5703" transform="translate(50.196 46.071)">
              <path id="Path_7265" data-name="Path 7265" d="M160.332,246.82a19.409,19.409,0,0,1,4.516-1.191,22.25,22.25,0,0,1,10.063,1.2,24.151,24.151,0,0,1,7.55,4.43,23.332,23.332,0,0,1,4.3,5.105l.441.717a3.905,3.905,0,0,0,.375.746,1.473,1.473,0,0,1-.73,2.1c-.041.016-.081.03-.123.044a2.228,2.228,0,0,1-2.5-1.1,2.067,2.067,0,0,1-.2-.735l-.361-.588-.08-.13a18.808,18.808,0,0,0-9.542-7.538,16.425,16.425,0,0,0-11.82.008c-.333.136-.626.337-.959.473l-.2.082a6.3,6.3,0,0,0-1.051.593,1.281,1.281,0,0,1-.293.166,2.1,2.1,0,0,1-2.268-.673,1.456,1.456,0,0,1,.182-2.28l1.28-.766A11.533,11.533,0,0,1,160.332,246.82Z" transform="translate(-156.981 -245.489)" fill="#134de9"/>
            </g>
          </g>
        </g>
        <g id="Group_5707" data-name="Group 5707" transform="translate(219.34 268.672)">
          <path id="Path_7268" data-name="Path 7268" d="M225.687,345.615a1.456,1.456,0,0,1,1.845.741,1.03,1.03,0,0,1-.451,1.528c-7.476,3.343-6.1,14.148,2.825,17.335a10.5,10.5,0,0,0,7.567.044c4.528-1.848,6.722-7.168,3.759-12.324a1.029,1.029,0,0,1,.426-1.539c.03-.014.061-.029.092-.042a1.419,1.419,0,0,1,1.791.637c3.736,6.5.97,13.217-4.748,15.552a13.236,13.236,0,0,1-9.538-.057C217.984,363.465,216.284,349.821,225.687,345.615Z" transform="translate(-219.593 -345.507)" fill="#134de9"/>
        </g>
        <path id="Path_7272" data-name="Path 7272" d="M201.491,161.353,326.48,364.963l1.753-.716L202.273,159.056,70.448,212.875l.971,1.581Z" transform="translate(-40.054 -126.592)" fill="#1a6ef5"/>
      </g>
      <g id="Group_5711" data-name="Group 5711" transform="translate(249.946 50.31)">
        <path id="Path_7273" data-name="Path 7273" d="M260.131,212.895c9.689,3.063,19.959,4.192,29.935,6.327,31.737,6.8,51.366,35.017,27.519,63.713-9.88,11.889-23.992,19.306-37.717,26.418,12.386-.414,24.841-3.5,35.3-10.279,10.732-6.954,19.6-16.41,30.493-23.146,14.354-8.879,31.421-12.316,48.235-13.782,22.5-1.962,45.765-.359,67.695-6.643,19.111-5.477,34.2-17.744,44.263-34.831,12.1-20.547,10.481-49.822-7.462-65.53-8.017-7.018-18.506-10.986-25.784-18.769-10.378-11.1-12.235-27.63-20.013-40.684-14.725-24.715-47.212-32.115-75.976-31.61-50.1.878-122.83,20.775-151.68,65.669-19.206,29.884-.735,68.981,30.4,81.442C256.919,211.821,258.517,212.384,260.131,212.895Z" transform="translate(-204.048 -46.642)" fill="#c3edf2" opacity="0.5"/>
        <path id="Path_7274" data-name="Path 7274" d="M257.25,214.666c10.006,1.774,20.336,1.553,30.5,2.37,32.352,2.6,55.492,28.02,35.591,59.581-8.246,13.077-21.271,22.27-33.951,31.11,12.225-2.026,24.171-6.712,33.657-14.794,9.733-8.294,17.3-18.824,27.216-26.923,13.074-10.675,29.547-16.308,46.026-19.953,22.054-4.879,45.328-6.322,66.251-15.411,18.233-7.922,31.593-22.052,39.345-40.305,9.322-21.95,3.9-50.763-15.942-64-8.864-5.915-19.781-8.48-28.012-15.248C446.2,101.444,442.2,85.3,432.79,73.368c-17.822-22.586-51-25.686-79.45-21.435-49.553,7.4-119.073,36.612-141.824,84.885-15.145,32.133,8.265,68.487,40.763,76.782C253.926,214.019,255.583,214.37,257.25,214.666Z" transform="translate(-206.801 -50.31)" fill="#fc7e7e"/>
      </g>
    </g>
    <g id="Group_5713" data-name="Group 5713" transform="translate(612.685 1496.421)">
      <path id="Path_7277" data-name="Path 7277" d="M1842.323,7323.5a7.25,7.25,0,0,1,2.727,6.819l-1.6,10.684a5.843,5.843,0,0,1-7.2,4.816l-15.143-4.273-1.49-8.937a5.187,5.187,0,0,0-3.165-3.922q-22.329-9.258-41.49-.091a5.2,5.2,0,0,0-2.915,3.819l-1.521,9.13-15.143,4.273a5.846,5.846,0,0,1-7.2-4.816l-1.6-10.684a7.25,7.25,0,0,1,2.727-6.819c7.038-5.434,24.579-13.811,46.508-13.811S1835.286,7318.064,1842.323,7323.5Z" transform="translate(-1746.5 -7309.687)" fill="#fff"/>
    </g>
    <g id="Group_5714" data-name="Group 5714" transform="translate(626.109 1464.207)">
      <path id="Path_7280" data-name="Path 7280" d="M1753.85,7294.247l35.912,18.1,36.509-18.1" transform="translate(-1753.85 -7290.232)" fill="none" stroke="#fff" stroke-linecap="round" stroke-linejoin="round" stroke-width="5"/>
      <path id="Path_7281" data-name="Path 7281" d="M1786.738,7292.05l12.35,4.014-4.015,12.351" transform="translate(-1726.668 -7292.05)" fill="none" stroke="#fff" stroke-linecap="round" stroke-linejoin="round" stroke-width="5"/>
    </g>
  </g>
</svg>
