<svg xmlns="http://www.w3.org/2000/svg" viewBox="0 0 88.029 43.662"><path
    d="M73.557 11.067a5.2 5.2 0 115.022 5.379 5.194 5.194 0 01-5.022-5.379zm13.9 5.12a5.382 5.382 0 01.489-.313l.078-.122c-.2-1.257-2.074-7.336-3.492-8.8a5.83 5.83 0 00-1.335-1.164C78.076 2.801 65.914 1.001 65.341.895h-.093l-.039.088s-.044 2.523-.054 2.8A75.335 75.335 0 0046.42.154C39.241-.095 28.814-1.025 14.935 7.49l-.411.254c-6.514 4.064-11.013 9.077-13.366 14.9a17.4 17.4 0 00-.748 9.859 15.214 15.214 0 002.281 4.943 14.838 14.838 0 0010.793 6.138c6.133.587 10.783-2.171 12.431-7.345a10.172 10.172 0 00-4.357-11.458 9.068 9.068 0 00-9.567-.216 6.392 6.392 0 00-2.983 5.419 5.971 5.971 0 005.746 5.908 6.906 6.906 0 002.171-.377 3.423 3.423 0 00.831-.372l.093-.054.054-.039a1.956 1.956 0 00.87-1.619 1.883 1.883 0 00-.078-.538 1.956 1.956 0 00-2.24-1.379l-.137.029-.181.059-.264.088a5.189 5.189 0 01-1.051.152 1.956 1.956 0 01-1.653-1.956 2.191 2.191 0 01.347-1.149 3.427 3.427 0 013.175-1.189 5.32 5.32 0 014.558 3.247 5.58 5.58 0 01-.621 5.839c-1.291 1.667-3.589 2.372-6.637 2.045a9.292 9.292 0 01-7.336-13.2c3.115-5.869 9-5.82 12.226-5.262 4.778.831 10.206 5.233 12.138 10.324a14.784 14.784 0 01.606 2.039l.205.88 5.379 2.631.068.054h.132v-.157a6.974 6.974 0 01-.24-1.741c-.1-1.34-.308-5.008 1.536-6.847a6.284 6.284 0 012.675-1.545c3.536-.866 7.683-.269 11.605 4.269 2.03 2.343 3.017 3.423 3.511 3.888l.176.157.205.156c.161.088 6.739 3.115 6.739 3.115l.137-.029v-.142c-.044-.049-4.167-5.379-3.423-9.781.577-3.5 3.36-3.179 7.213-2.744 1.257.147 2.685.308 4.167.342a30.241 30.241 0 0011.341-1.956 12.814 12.814 0 003.619-1.956 2.2 2.2 0 00.528-.929l.093-.24a10.885 10.885 0 00.357-1.281c.034-.152.049-.313-.059-.4l-.381.068a16.19 16.19 0 01-7.037 2.162c-3.5.068-10.544-3.521-11.277-3.912l-.073-.083c-.171-.421-1.228-2.934-1.467-3.423 5.071 3.34 9.292 5.189 12.5 5.472 3.59.318 6.358-1.638 7.575-2.475zm-7.976-4.641c-.89 0-1.609-.489-1.609-1.071s.719-1.074 1.613-1.074 1.614.489 1.614 1.076-.724 1.071-1.614 1.071m-.594-3.967a3.631 3.631 0 102.357 6.279 3.57 3.57 0 001.143-2.524 3.634 3.634 0 00-3.5-3.756z"
    fill="#73ba25"
  /></svg>
