<svg xmlns="http://www.w3.org/2000/svg" viewBox="0 0 97.809 40.591"><path
    d="M2.934 40.59H0V9.502a24.716 24.716 0 017.336-1.154 13.238 13.238 0 014.749.812 10.759 10.759 0 013.663 2.269 9.864 9.864 0 012.333 3.467 11.527 11.527 0 01.812 4.367 11.3 11.3 0 01-.978 4.92 9.874 9.874 0 01-2.592 3.384 10.343 10.343 0 01-3.658 1.956 14.363 14.363 0 01-4.2.621 15.114 15.114 0 01-2.27-.171 21.2 21.2 0 01-2.224-.489zM15.5 19.219a8.6 8.6 0 00-2.078-6.015 7.523 7.523 0 00-5.869-2.289 17.762 17.762 0 00-2.352.152 11.086 11.086 0 00-2.264.533v15.16a19.524 19.524 0 002.118.582 10.074 10.074 0 002.122.235 8.371 8.371 0 006.054-2.162 8.252 8.252 0 002.269-6.196zm9.368 10.745V0h3.008v29.964zm27.484-3.125a9.942 9.942 0 01-3.467 2.445 12.158 12.158 0 01-4.754.836 10.73 10.73 0 01-4.494-.88 9.1 9.1 0 01-3.208-2.343 10.02 10.02 0 01-1.927-3.419 12.715 12.715 0 01-.646-4.069 14.08 14.08 0 01.773-4.894 9.781 9.781 0 012.1-3.423 8.455 8.455 0 013.081-2.034 10.48 10.48 0 013.719-.71q4.709 0 7.106 2.89t2.313 8.412h-16.05a8.657 8.657 0 002.1 5.776 6.935 6.935 0 005.35 2.142 9.042 9.042 0 003.423-.621 7.561 7.561 0 002.783-1.99zm-2.4-9.722a7.375 7.375 0 00-.411-2.484 5.6 5.6 0 00-1.151-1.955 5.38 5.38 0 00-1.956-1.306 8.152 8.152 0 00-5.59 0 5.027 5.027 0 00-1.858 1.262 8.641 8.641 0 00-1.267 1.954 8.05 8.05 0 00-.738 2.528zm22.607-3.507a7.5 7.5 0 00-2.445-2.074 6.719 6.719 0 00-3.1-.665 4.884 4.884 0 00-3.2.812 2.616 2.616 0 00-.919 2.059 2.406 2.406 0 00.425 1.467 3.722 3.722 0 001.116 1.024 7.962 7.962 0 001.614.748c.611.215 1.247.425 1.907.621q1.208.391 2.421.836a9.36 9.36 0 012.22 1.179 5.868 5.868 0 011.633 1.775 5.027 5.027 0 01.631 2.631 5.345 5.345 0 01-.631 2.612 5.751 5.751 0 01-1.7 1.956 7.639 7.639 0 01-2.533 1.2 12.4 12.4 0 01-7.644-.425 10.705 10.705 0 01-3.722-2.763l2.328-2.054a7.336 7.336 0 006.054 3 5.823 5.823 0 003.585-.9 2.675 2.675 0 001.169-2.181 2.993 2.993 0 00-.425-1.648 3.707 3.707 0 00-1.169-1.135 7.609 7.609 0 00-1.7-.792 42.502 42.502 0 00-2.039-.621q-1.21-.345-2.4-.773a8.714 8.714 0 01-2.127-1.091 5.277 5.277 0 01-1.545-1.687 5.071 5.071 0 01-.606-2.611 5.13 5.13 0 012.059-4.367 8.683 8.683 0 015.34-1.54 10.558 10.558 0 014.147.768 9.663 9.663 0 013.472 2.7l-2.2 2.01zm7.957 16.354V.044h2.993v29.92zm2.993-11.043L93.776 8.554h4.03l-10.53 10.274 10.489 11.126h-4.152z"
  />
  <path d="M35.294 40.591H17.263v-2.822h18.031z" fill="#53bce6" /></svg>
