<svg xmlns="http://www.w3.org/2000/svg" viewBox="0 0 63.576 55.369"><path
    d="M11.248 7.832a11.018 11.018 0 00-7.825-.362C1.183 8.335 0 9.162 0 9.802c0 .318 3.526 4.445 7.786 9.16s7.766 8.661 7.766 8.749-3.526 4.03-7.786 8.749S.024 45.39.073 45.752c.225 1.237 3.986 2.8 6.729 2.8 4.445-.049 5.453-.826 14.842-11.131 4.714-5.189 8.563-9.59 8.563-9.708s-3.8-4.489-8.47-9.615c-6.088-6.647-9.066-9.624-10.489-10.266zm36.825 19.879c0-.093 3.526-4.079 7.786-8.8s7.742-8.832 7.717-9.174c-.23-1.193-3.619-2.563-6.553-2.748a8.206 8.206 0 00-4.695.792c-1.325.685-4.67 3.986-10.441 10.3-4.67 5.13-8.475 9.439-8.475 9.619s3.849 4.533 8.568 9.712c9.385 10.3 10.392 11.082 14.838 11.131 2.748 0 6.5-1.56 6.734-2.8.044-.411-3.389-4.533-7.7-9.253s-7.779-8.661-7.779-8.779z"
    fill="#e57000"
  />
  <path
    d="M51.648 1.328C50.548.502 49.359.184 47.11.091c-4.211-.274-5.678.641-10.9 6.5-2.382 2.656-4.4 4.851-4.4 4.851s-2.015-2.152-4.348-4.763A40.884 40.884 0 0021.52.957a11.115 11.115 0 00-8.48-.23c-2.885 1.467-2.885 1.692-.186 4.714C27.832 22.122 31.407 26.059 31.68 26.059c.367.044 21.112-22.628 21.347-23.313.083-.181-.557-.841-1.379-1.418zM31.671 29.36c-.181 0-4.944 5.179-10.622 11.5-5.678 6.279-10.348 11.585-10.446 11.815s.553.826 1.379 1.418c1.1.826 2.289 1.144 4.533 1.237 4.167.274 5.722-.685 10.994-6.641 2.289-2.563 4.26-4.714 4.3-4.714s2.015 2.147 4.348 4.763c5.379 5.952 6.778 6.847 10.95 6.592 2.245-.093 3.423-.411 4.533-1.237.822-.592 1.467-1.237 1.374-1.418-.226-.687-20.981-23.379-21.343-23.315z"
  /></svg>
