<svg xmlns="http://www.w3.org/2000/svg" viewBox="0 0 58.641 64.402"><defs>
    <linearGradient
      id="webmin-a"
      x1=".5"
      x2=".5"
      y2="1"
      gradientUnits="objectBoundingBox"
    >
      <stop offset="0" stop-color="#9fbae2" />
      <stop offset="1" stop-color="#4c7dc4" />
    </linearGradient>
  </defs>
  <path
    d="M93.744 62.474q-2.832-2.347-5.8-4.783c-.489-2.773-1.012-5.7-1.467-8.358-.822-4.631-4.832-9.5-9.057-10.847a6.4 6.4 0 00-5.468.6 15.894 15.894 0 00-6.656-4.465c-5.648-1.8-10.27 1.467-9.781 7.575.274 3.3.558 6.641.841 10.011-2.9 1.218-5.957 2.509-9.2 3.863a11.463 11.463 0 00-6.568 7.761 14.045 14.045 0 001.948 11.129 15.532 15.532 0 008.7 6.543 19.4 19.4 0 00.915 7.932 14.76 14.76 0 001.428 2.934 12.732 12.732 0 008.548 6 10.153 10.153 0 008.842-2.68c2.631-2.538 5.115-4.934 7.487-7.2 2.812 1.687 5.521 3.316 8.152 4.89 4.308 2.567 8.71-.225 9.747-5.678a16.708 16.708 0 00-.567-7.683 6.306 6.306 0 002.861-4.489c.817-4.34-1.34-10.106-4.905-13.055zM56.405 52.85zm0-.156v.064-.039zm0-.117a.633.633 0 00-.029-.23 1.24 1.24 0 000 .23zm-.029-.362v.068-.049zm38.111 20.1c-.234 1.055-.914 1.685-1.765 1.585a5.139 5.139 0 01-2.479-1.247 1080.965 1080.965 0 00-6.064-4.524 20.289 20.289 0 01-.577-.406c-1.731-1.276-3.242-1.032-3.819.714a4.7 4.7 0 002.025 5.135l.6.425a1651.87 1651.87 0 006.387 4.45 10.06 10.06 0 011.956 1.717 5.336 5.336 0 011.081 4.4c-.352 1.589-1.379 2.416-2.626 2.132a6.416 6.416 0 01-2.23-1.12c-2.2-1.423-4.445-2.9-6.773-4.4a10.826 10.826 0 01-.636-.425 3.761 3.761 0 00-2.059-.626 3.081 3.081 0 00-2.122.768c-.2.161-.391.313-.572.489-2.171 1.785-4.4 3.692-6.807 5.7a8.474 8.474 0 01-2.729 1.8c-1.731.66-3.648-.083-4.846-1.986a5.141 5.141 0 01.088-5.785 11.2 11.2 0 012.5-2.269l7.184-5.13.611-.425c1.721-1.223 2.049-3.384.836-5.379s-3.14-2.616-4.993-1.5c-.21.122-.421.249-.631.391q-3.6 2.21-7.58 4.665a7.559 7.559 0 01-3.919 1.436 4.892 4.892 0 01-4.2-2.445 4.528 4.528 0 01-.083-5.15 7.712 7.712 0 013.035-2.175c2.8-1.467 5.492-2.817 8.04-4.1.22-.132.44-.22.665-.333a3.507 3.507 0 00.425-.259c1.144-.489 1.7-1.765 1.521-3.472-.034-.289-.054-.562-.1-.836-.313-3.032-.621-6-.944-8.9a6.961 6.961 0 01.059-3.1c.357-1.12 1.624-1.6 3.037-1.223a5.287 5.287 0 013.1 2.5 8.8 8.8 0 01.978 3.482c.357 2.768.719 5.57 1.086 8.441.034.264.073.523.1.782.308 2.387 1.726 4.1 3.57 4.348s2.709-1.154 2.387-3.384c-.029-.245-.064-.489-.1-.743q-.6-4.123-1.179-8.069a9.258 9.258 0 01-.137-2.572A1.762 1.762 0 0178.2 44.14a4.949 4.949 0 013.042 2.934 10.993 10.993 0 01.631 2.587c.425 2.528.841 5.076 1.272 7.7.034.235.073.489.1.719.073.342.161.646.254.949a5.326 5.326 0 001.9 2.783c.176.142.372.279.548.43C87.9 63.78 89.822 65.3 91.7 66.768a8.5 8.5 0 011.956 1.922 4.89 4.89 0 01.807 3.629z"
    transform="translate(-40.178 -34.129)"
    fill="url(#webmin-a)"
  /></svg>
